PathFileType	4	(X/Y/Z)	Walk1.trc
DataRate	CameraRate	NumFrames	NumMarkers	Units	OrigDataRate	OrigDataStartFrame	OrigNumFrames
200.000000	200.000000	6	59	mm	200.000000	324	554
Frame#	Times		LBHD		C7		T10		RBack		LPSI		RPSI		LTB1		RCAR		LMT5		LLFC		LFHD		RWRR		LTH4		LUA1		RBHD		RElbowM		LElbowM		RUA1		RFA1		CLAV		RTH3		RACR1		LACR1		RWRU		RTH2		LWRU		LCAR		RFHD		RTB1		LFA1		RElbow		RTB2		RCAL		RTH4		RTB4		RToe		RTB3		RMT1		RLFC		RTH1		RMT5		LElbow		LTB4		RLMAL		STRN		LASI		LTB3		LWRR		LTH3		RASI		LLMAL		LTH1		LMT1		RMMAL		LCAL		LTH2		LTB2		LMMAL		LToe
			X1	Y1	Z1	X2	Y2	Z2	X3	Y3	Z3	X4	Y4	Z4	X5	Y5	Z5	X6	Y6	Z6	X7	Y7	Z7	X8	Y8	Z8	X9	Y9	Z9	X10	Y10	Z10	X11	Y11	Z11	X12	Y12	Z12	X13	Y13	Z13	X14	Y14	Z14	X15	Y15	Z15	X16	Y16	Z16	X17	Y17	Z17	X18	Y18	Z18	X19	Y19	Z19	X20	Y20	Z20	X21	Y21	Z21	X22	Y22	Z22	X23	Y23	Z23	X24	Y24	Z24	X25	Y25	Z25	X26	Y26	Z26	X27	Y27	Z27	X28	Y28	Z28	X29	Y29	Z29	X30	Y30	Z30	X31	Y31	Z31	X32	Y32	Z32	X33	Y33	Z33	X34	Y34	Z34	X35	Y35	Z35	X36	Y36	Z36	X37	Y37	Z37	X38	Y38	Z38	X39	Y39	Z39	X40	Y40	Z40	X41	Y41	Z41	X42	Y42	Z42	X43	Y43	Z43	X44	Y44	Z44	X45	Y45	Z45	X46	Y46	Z46	X47	Y47	Z47	X48	Y48	Z48	X49	Y49	Z49	X50	Y50	Z50	X51	Y51	Z51	X52	Y52	Z52	X53	Y53	Z53	X54	Y54	Z54	X55	Y55	Z55	X56	Y56	Z56	X57	Y57	Z57	X58	Y58	Z58	X59	Y59	Z59

324	1.62	-159.39	1490.6	-74.929	-186.84	1357.7	-8.2664	-223.07	1090.5	-26.138	-213.13	1256.4	116.41	-252.7	905.1	-61.406	-259.51	904.24	37.786	-154.9	336.52	-50.08	-102.48	725.89	292.81	-171.73	34.047	-81.736	-165.09	449.48	-136.9	13.832	1491.6	-56.937	-72.506	768.4	255.04	-105.28	644.45	-170.1	-115.64	1137.8	-267.24	-157.75	1498.5	48.193	-194.47	959.06	171.56	-194.13	989.77	-232.44	-122.37	1133.6	220.36	-167.07	867.68	265.17	-65.002	1275.1	-5.2016	-13.243	566.79	162.27	-114.41	1290.2	144.41	-106.16	1302.2	-172.33	-146.11	757.35	260.18	17.649	687.82	153.06	-94.654	788.61	-333.21	-43.966	752.81	-344.56	21.043	1501.1	19.185	65.824	351.03	78.772	-128.33	903.66	-323.6	-163.47	995.06	255.2	12.615	264.14	144.22	-65.641	63.176	79.424	-47.8	654.86	180.09	45.428	261.12	79.954	141.73	51.527	106.59	39.18	167.5	77.619	93.801	70.296	81.694	36.293	479.76	154.63	-76.338	736.6	198.25	63.49	52.583	126.44	-160.32	1025.2	-294.96	-183.2	248.89	-44.395	-10.934	87.291	117.5	-4.8868	1168.4	-10.8	-53.664	851.55	-171.07	-194.11	158.4	-34.999	-33.766	788.05	-291.41	-120.75	553.53	-145.64	-40.07	874.65	135.61	-254.63	66.827	-78.584	-94.631	733.8	-198.19	-149.92	46.907	-23.61	6.7274	93.981	39.489	-305.35	36.09	-40.381	-46.415	651.71	-125.83	-200.72	247.83	-112.83	-241.22	70.711	1.2924	-91.82	23.671	-32.903
325	1.625	-153.39	1489.5	-74.602	-180.88	1357	-7.837	-217.3	1089.5	-25.768	-207.17	1255.4	116.56	-247.25	904.58	-60.754	-253.56	903.45	38.214	-152.62	335.86	-49.841	-99.317	724.74	293.18	-171.66	33.941	-81.535	-161.75	449.01	-136.38	19.767	1490.7	-56.631	-69.051	767.47	255.48	-100.98	643.56	-169.65	-109.08	1137.2	-267.1	-151.58	1497.5	48.537	-190.25	958.48	172.14	-188.14	988.71	-232.57	-117.46	1132.8	220.94	-163.52	867.16	265.55	-59.35	1273.9	-4.6344	-6.6785	566.01	161.28	-108.7	1289.5	144.72	-100.2	1301.3	-171.92	-142.43	756.58	260.68	23.516	686.9	152.34	-87.186	787.94	-333.07	-36.242	752.65	-344.4	27.098	1500.2	19.762	75.549	351.4	78.032	-121.17	902.98	-323.4	-158.92	994.5	255.75	26.011	262.97	144.21	-45.861	59.223	80.677	-41.365	654.19	179.81	58.639	260.87	79.428	162.16	53.144	106.08	55.628	167.21	77.679	113.53	70.892	81.708	43.056	479.15	154.4	-70.993	736.2	198.59	84.335	52.524	127.2	-154.05	1024.5	-295.08	-181.56	248.51	-44.134	8.4805	84.917	118.19	0.76235	1167.7	-10.416	-48.55	851.63	-171.62	-193.33	158.31	-34.836	-26.453	787.63	-290.88	-116.25	552.8	-145.01	-33.876	873.21	136.21	-254.31	66.884	-78.343	-89.323	732.88	-197.74	-149.83	46.843	-23.535	25.52	92.07	39.948	-305.32	36.425	-40.164	-41.99	650.48	-125.26	-198.6	247.78	-112.74	-241.11	70.78	1.4895	-91.707	23.662	-32.923
326	1.63	-147.31	1488.9	-74.258	-175.05	1355.8	-7.5538	-211.42	1088.7	-25.236	-201.72	1254.5	117.06	-241.59	904	-60.179	-247.55	902.41	39.097	-150.37	335.19	-49.52	-96.01	723.95	293.96	-171.65	33.914	-81.384	-158.53	448.58	-136.09	25.768	1489.8	-56.089	-65.254	766.2	256.29	-95.799	642.45	-169.43	-102.78	1136.2	-266.87	-146.07	1496.7	48.991	-185.76	957.54	172.59	-181.63	987.68	-232.36	-112.68	1132	221.39	-159.88	866.44	266.07	-53.326	1273	-4.0617	0.10251	565.02	160.88	-102.74	1288.3	145.07	-94.326	1300.5	-171.6	-138.68	755.91	260.99	29.989	686.22	152.77	-79.851	787.59	-332.71	-28.583	752.33	-344.15	33.186	1499	19.98	85.164	351.61	77.574	-114.08	902.27	-323.12	-154.34	994.11	256.18	39.124	261.89	144.18	-25.732	55.375	81.779	-34.653	653.23	179.5	71.769	260.34	79.161	182.57	54.848	105.26	71.85	166.74	78.056	133.06	71.515	81.91	49.498	478.48	153.34	-65.818	735.29	199.03	104.72	52.413	127.11	-147.34	1023.7	-295.04	-179.91	248.34	-44.055	27.873	82.962	118.96	6.8451	1166.7	-10.192	-43.391	851.65	-172.43	-192.33	158.15	-34.608	-18.773	787.43	-290.65	-112.25	552.21	-144.3	-28.136	872.44	136.48	-254.01	66.959	-78.132	-84.138	731.99	-197.51	-149.74	46.852	-23.42	43.987	90.956	40.265	-305.3	36.758	-39.988	-37.502	649.48	-124.66	-197.1	247.59	-112.38	-241.04	70.836	1.6418	-91.705	23.615	-32.847
327	1.635	-141.3	1487.7	-73.726	-169.33	1355.1	-7.2121	-205.43	1088	-24.962	-196.19	1253.5	117.25	-235.98	903.35	-59.393	-241.53	901.45	39.506	-147.8	334.46	-49.286	-92.566	723.12	294.61	-171.67	33.892	-81.232	-155.3	447.97	-135.79	31.539	1488.6	-55.742	-60.559	765.41	257.17	-90.676	641.54	-168.87	-96.622	1135.5	-266.38	-140.24	1495.8	49.506	-181.4	956.91	173.24	-175.19	986.74	-232.5	-108	1131.1	221.83	-155.84	865.59	266.79	-47.551	1272.2	-3.7666	6.2259	563.93	160.62	-97.455	1287.2	145.66	-88.248	1299.7	-171.1	-135.43	755.49	261.94	36.207	685.28	151.98	-72.471	786.79	-332.27	-20.935	752.03	-343.89	38.987	1498.1	20.439	94.307	352	77.261	-107.2	901.46	-323.03	-149.95	993.25	256.82	52.13	260.96	144.25	-5.9951	51.894	83.541	-28.346	652	179.36	84.056	260.21	79.409	202.92	57.255	104.43	87.74	166.74	78.292	152.45	72.851	81.25	56.203	477.79	152.28	-60.3	734.41	199.24	124.84	52.793	126.73	-140.94	1022.9	-295.19	-178.24	248.07	-43.914	47.003	81.251	119.9	12.692	1165.5	-9.1894	-38.166	851.56	-173.47	-191.42	157.72	-34.362	-11.217	787.26	-290.39	-108.13	551.5	-143.96	-21.96	871.71	136.88	-253.7	67.076	-77.886	-79.339	731.19	-197.13	-149.52	46.669	-23.306	62.13	90.104	40.468	-305.23	37.048	-39.801	-33.044	648.24	-123.97	-195.59	247.38	-112.11	-240.94	70.921	1.7758	-91.641	23.62	-32.882
328	1.64	-135.42	1486.8	-73.199	-163.32	1354	-6.7754	-199.49	1087.1	-24.618	-190.13	1252.6	117.48	-230.49	902.87	-58.826	-235.71	900.41	39.967	-145.27	333.74	-49.217	-88.77	722.4	295.15	-171.61	33.745	-81.144	-152.07	447.46	-135.74	37.406	1487.6	-55.135	-55.828	765.06	257.62	-85.851	640.7	-168.58	-90.1	1134.4	-265.96	-134.07	1494.9	49.874	-177.18	956.31	173.51	-168.77	985.78	-232.71	-102.99	1130.1	222.46	-151.63	864.95	267.38	-41.823	1271.3	-3.3343	12.237	562.87	160.33	-91.693	1286.2	146.11	-82.452	1298.7	-170.52	-131.74	754.57	261.94	41.81	683.89	150.95	-64.953	786.27	-331.75	-13.283	751.56	-343.19	44.884	1497.1	21.142	103.42	351.97	76.661	-100.36	900.79	-322.69	-145.65	992.24	257.29	65.274	260.12	144.15	13.738	49.398	85.241	-22.225	650.95	179.21	96.523	260.05	78.927	222.8	59.894	103.26	103.61	166.84	78.641	171.57	74.377	80.489	62.543	477.14	151.6	-54.689	733.7	199.43	145.2	54.044	127.04	-134.31	1021.9	-294.93	-176.27	247.13	-44.032	65.981	79.934	120.85	18.428	1164.7	-8.5629	-32.867	851.31	-174.61	-190.29	157.4	-33.987	-3.7433	787.08	-289.95	-104.32	550.75	-143.74	-15.31	870.27	137.58	-253.42	67.307	-77.71	-74.107	730.06	-196.75	-149.41	46.587	-23.215	79.932	89.449	40.489	-305.21	37.339	-39.594	-28.732	647.05	-123.37	-193.74	247.08	-111.97	-240.77	71.045	1.9339	-91.583	23.614	-32.95
329	1.645	-129.64	1485.7	-72.957	-157.45	1353.1	-6.0589	-193.61	1085.7	-24.051	-184.37	1251.5	117.8	-225	902.09	-58.231	-229.3	899.41	40.808	-142.63	333.05	-49.078	-85.385	721.33	295.72	-171.69	33.788	-80.965	-148.6	446.96	-135.47	43.304	1486.5	-54.69	-51.322	763.87	258.33	-81.334	640.02	-168.34	-83.898	1133.7	-265.55	-128.23	1494	50.271	-173.01	955.76	173.99	-162.27	984.64	-232.27	-98.046	1129.5	223.06	-147.49	864.25	267.89	-35.848	1270.2	-2.8756	18.469	561.79	159.86	-85.724	1285.2	146.51	-76.393	1297.8	-169.91	-127.53	753.4	262.36	48.189	682.43	150.4	-57.337	785.7	-331.16	-5.8052	751.14	-343.05	50.692	1496.1	21.701	112.28	351.99	76.086	-93.246	899.95	-322.54	-141.17	991.47	257.77	77.995	259.55	144.61	33.202	46.905	86.729	-16.409	650.1	179.25	109.05	260.39	78.735	242.28	63.102	101.79	119.05	167.01	78.726	190.24	76.274	79.983	68.647	475.88	151.36	-48.319	732.33	200.31	165.27	55.018	126.52	-127.93	1020.8	-294.49	-174.82	246.67	-43.809	85.158	79.025	121.6	24.399	1163.9	-8.3771	-27.394	850.97	-175.29	-189.36	157.26	-33.884	3.7972	786.71	-289.64	-100.14	549.84	-143.4	-8.6851	869.2	138.08	-253.17	67.599	-77.581	-68.511	729.1	-196.57	-149.43	46.977	-22.857	97.689	88.757	41.204	-305.14	37.74	-39.36	-24.454	646.03	-122.86	-192.27	246.96	-111.81	-240.48	71.253	2.0831	-91.528	23.641	-33.007
